<svg xmlns="http://www.w3.org/2000/svg" viewBox="0 0 24 24"><path fill="currentColor" d="M12 .5A11.5 11.5 0 0 0 .5 12.3c0 5.2 3.4 9.6 8.2 11.1.6.1.8-.2.8-.5v-2c-3.3.7-4-1.4-4-1.4-.6-1.6-1.4-2-1.4-2-1.1-.8.1-.8.1-.8 1.2.1 1.8 1.2 1.8 1.2 1.1 1.8 2.9 1.3 3.6 1 .1-.8.4-1.3.7-1.6-2.7-.3-5.5-1.4-5.5-6.1 0-1.3.5-2.4 1.2-3.3-.1-.3-.5-1.6.1-3.3 0 0 1-.3 3.4 1.2a11.7 11.7 0 0 1 6.2 0c2.4-1.5 3.4-1.2 3.4-1.2.6 1.7.2 3 .1 3.3.8.9 1.2 2 1.2 3.3 0 4.7-2.8 5.8-5.5 6.1.4.3.8 1 .8 2v3c0 .3.2.6.8.5A11.8 11.8 0 0 0 23.5 12C23.5 5.7 18.3.5 12 .5Z"/></svg>